<svg width="72.000000" height="71.999725" viewBox="0 0 72 71.9997" fill="none" xmlns="http://www.w3.org/2000/svg" xmlns:xlink="http://www.w3.org/1999/xlink">
	<desc>
			Created with Pixso.
	</desc>
	<defs/>
	<path id="矩形 750" d="M21.79 7.71L50.2 7.71C51.62 7.71 52.77 8.86 52.77 10.29L52.77 19.31L19.22 19.31L19.22 10.29C19.22 8.86 20.37 7.71 21.79 7.71Z" fill="#CBD2E2" fill-opacity="1.000000" fill-rule="evenodd"/>
	<path id="矩形 750 (边框)" d="M51.02 6.52C50.75 6.46 50.48 6.43 50.2 6.43L21.79 6.43C21.51 6.43 21.24 6.46 20.97 6.52C20.74 6.57 20.51 6.64 20.29 6.73C20.07 6.83 19.86 6.94 19.66 7.07C19.45 7.21 19.25 7.37 19.06 7.56C18.88 7.74 18.71 7.94 18.57 8.16C18.44 8.35 18.33 8.56 18.24 8.78C18.14 9.01 18.07 9.23 18.02 9.46C17.96 9.73 17.93 10.01 17.93 10.29L17.93 20.6L54.06 20.6L54.06 10.29C54.06 10.01 54.03 9.73 53.97 9.46C53.92 9.23 53.85 9.01 53.75 8.78C53.66 8.56 53.55 8.35 53.42 8.16C53.28 7.94 53.11 7.74 52.93 7.56C52.74 7.37 52.54 7.21 52.33 7.07C52.13 6.94 51.92 6.83 51.7 6.73C51.48 6.64 51.25 6.57 51.02 6.52ZM21.79 9L50.2 9C50.38 9 50.54 9.03 50.7 9.09C50.85 9.16 50.99 9.25 51.11 9.38C51.24 9.5 51.33 9.64 51.39 9.79C51.46 9.94 51.49 10.11 51.49 10.29L51.49 18.02L20.5 18.02L20.5 10.29C20.5 10.11 20.54 9.94 20.6 9.79C20.66 9.64 20.75 9.5 20.88 9.38C21.01 9.25 21.14 9.16 21.3 9.09C21.45 9.03 21.61 9 21.79 9Z" fill="#394660" fill-opacity="1.000000" fill-rule="evenodd"/>
	<path id="矩形 749" d="M14.68 18.37L57.32 18.37L52.37 61.99C52.22 63.29 51.12 64.28 49.82 64.28L22.18 64.28C20.87 64.28 19.77 63.29 19.62 61.99L14.68 18.37Z" fill="#EBF3FE" fill-opacity="1.000000" fill-rule="evenodd"/>
	<path id="矩形 749 (边框)" d="M53.65 62.14L58.59 18.51L58.75 17.08L13.24 17.08L18.34 62.14C18.37 62.39 18.42 62.64 18.5 62.88C18.57 63.09 18.66 63.3 18.76 63.5C18.86 63.7 18.98 63.88 19.12 64.06C19.26 64.25 19.43 64.42 19.61 64.58C19.79 64.74 19.98 64.88 20.18 65.01C20.37 65.12 20.57 65.22 20.78 65.3C20.99 65.38 21.2 65.44 21.42 65.49C21.67 65.54 21.92 65.56 22.18 65.56L49.82 65.56C50.07 65.56 50.32 65.54 50.57 65.49C50.79 65.44 51 65.38 51.21 65.3C51.42 65.22 51.62 65.12 51.81 65.01C52.01 64.88 52.21 64.74 52.38 64.58C52.57 64.42 52.73 64.25 52.87 64.06C53.01 63.88 53.13 63.7 53.23 63.5C53.34 63.3 53.42 63.09 53.49 62.88C53.57 62.64 53.62 62.39 53.65 62.14ZM55.88 19.66L51.09 61.85C51.07 62.01 51.03 62.16 50.96 62.3C50.89 62.43 50.79 62.55 50.67 62.66C50.55 62.77 50.42 62.85 50.28 62.91C50.13 62.96 49.98 62.99 49.82 62.99L22.18 62.99C22.01 62.99 21.86 62.96 21.72 62.91C21.57 62.85 21.44 62.77 21.32 62.66C21.2 62.55 21.1 62.43 21.03 62.3C20.96 62.16 20.92 62.01 20.9 61.85L16.12 19.66L55.88 19.66Z" fill="#394660" fill-opacity="1.000000" fill-rule="evenodd"/>
	<path id="直线 171 (边框)" d="M7.71 19.65C6.99 19.65 6.42 19.08 6.42 18.36C6.42 17.64 6.99 17.07 7.71 17.07L64.28 17.07C65 17.07 65.57 17.64 65.57 18.36C65.57 19.08 65 19.65 64.28 19.65L7.71 19.65Z" fill="#394660" fill-opacity="1.000000" fill-rule="evenodd"/>
	<path id="直线 172 (边框)" d="M30.71 50.43L30.71 32.21C30.71 31.49 30.15 30.93 29.42 30.93C28.71 30.93 28.14 31.49 28.14 32.21L28.14 50.43C28.14 51.15 28.71 51.72 29.42 51.72C30.15 51.72 30.71 51.15 30.71 50.43Z" fill="#F41B1B" fill-opacity="1.000000" fill-rule="evenodd"/>
	<path id="直线 173 (边框)" d="M43.85 50.43L43.85 32.21C43.85 31.49 43.28 30.93 42.56 30.93C41.84 30.93 41.28 31.49 41.28 32.21L41.28 50.43C41.28 51.15 41.84 51.72 42.56 51.72C43.28 51.72 43.85 51.15 43.85 50.43Z" fill="#F41B1B" fill-opacity="1.000000" fill-rule="evenodd"/>
</svg>
