<svg width="72.000000" height="71.999733" viewBox="0 0 72 71.9997" fill="none" xmlns="http://www.w3.org/2000/svg" xmlns:xlink="http://www.w3.org/1999/xlink">
	<desc>
			Created with Pixso.
	</desc>
	<defs/>
	<path id="polygon" d="M39 35.97L10.58 20.23L39.02 4.36L67.31 20.16L39 35.97Z" fill="#C5DBFB" fill-opacity="1.000000" fill-rule="nonzero"/>
	<path id="polyline" d="M67.29 21.87L67.3 49.55L38.9 67.62L38.94 37.67L67.29 21.87Z" fill="#EBF3FE" fill-opacity="1.000000" fill-rule="evenodd"/>
	<path id="polygon (边框)" d="M38.39 3.23L9.95 19.11C9.32 19.46 9.1 20.23 9.45 20.86C9.8 21.49 10.57 21.71 11.2 21.36L39.02 5.83L66.68 21.29C67.31 21.64 68.08 21.42 68.43 20.79C68.78 20.16 68.56 19.39 67.94 19.04L39.65 3.23C39.45 3.12 39.24 3.07 39.02 3.07C38.8 3.07 38.59 3.12 38.39 3.23Z" fill="#394660" fill-opacity="1.000000" fill-rule="evenodd"/>
	<path id="polyline (边框)" d="M29.39 60.05C28.78 59.66 28 59.83 27.61 60.44C27.22 61.05 27.4 61.83 28 62.22L38.18 68.72C38.79 69.11 39.57 68.94 39.96 68.33C40.35 67.72 40.18 66.94 39.57 66.55L29.39 60.05Z" fill="#394660" fill-opacity="1.000000" fill-rule="evenodd"/>
	<path id="line (边框)" d="M11.86 20.23C11.86 19.51 11.29 18.95 10.57 18.95C9.85 18.95 9.29 19.51 9.29 20.23L9.29 32.33C9.29 33.05 9.85 33.62 10.57 33.62C11.29 33.62 11.86 33.05 11.86 32.33L11.86 20.23Z" fill="#394660" fill-opacity="1.000000" fill-rule="evenodd"/>
	<path id="polyline (边框)" d="M68.59 20.23C68.59 19.51 68.02 18.95 67.3 18.95C66.58 18.95 66.01 19.51 66.01 20.23L66.01 48.84L38.21 66.54C37.6 66.93 37.43 67.71 37.81 68.31C38.2 68.92 38.98 69.1 39.59 68.71L67.99 50.63C68.18 50.52 68.32 50.36 68.43 50.17C68.53 49.98 68.59 49.77 68.59 49.55L68.59 20.23Z" fill="#394660" fill-opacity="1.000000" fill-rule="evenodd"/>
	<path id="line (边框)" d="M27.41 45.6L4.69 45.6C3.25 45.6 2.12 46.73 2.12 48.17C2.12 49.61 3.25 50.74 4.69 50.74L27.41 50.74C28.85 50.74 29.98 49.61 29.98 48.17C29.98 46.73 28.85 45.6 27.41 45.6Z" fill="#1EB341" fill-opacity="1.000000" fill-rule="evenodd"/>
	<path id="line (边框)" d="M12.67 36.53L2.86 46.34C1.85 47.36 1.85 48.96 2.86 49.97C3.88 50.99 5.48 50.99 6.5 49.97L16.3 40.17C17.32 39.15 17.32 37.55 16.3 36.53C15.29 35.52 13.69 35.52 12.67 36.53Z" fill="#1EB341" fill-opacity="1.000000" fill-rule="evenodd"/>
	<path id="line (边框)" d="M16.3 56.15L6.5 46.34C5.48 45.32 3.88 45.32 2.87 46.34C1.85 47.35 1.85 48.95 2.86 49.97L12.67 59.78C13.68 60.8 15.28 60.8 16.3 59.78C17.32 58.77 17.32 57.17 16.3 56.15Z" fill="#1EB341" fill-opacity="1.000000" fill-rule="evenodd"/>
</svg>
